<svg xmlns="http://www.w3.org/2000/svg" xmlns:xlink="http://www.w3.org/1999/xlink" width="755" zoomAndPan="magnify" viewBox="0 0 567 567.000005" height="755" preserveAspectRatio="xMidYMid meet" version="1.0"><defs><clipPath id="6e79574ff1"><path d="M 138.480469 127.070312 L 428.222656 127.070312 L 428.222656 438.519531 L 138.480469 438.519531 Z M 138.480469 127.070312 " clip-rule="nonzero"/></clipPath></defs><g clip-path="url(#6e79574ff1)"><path fill="#512036" d="M 428.128906 231.710938 C 428.125 231.519531 428.105469 231.328125 428.070312 231.140625 C 428.058594 231.089844 428.046875 231.042969 428.035156 230.996094 C 428 230.847656 427.957031 230.703125 427.902344 230.5625 C 427.882812 230.519531 427.867188 230.472656 427.851562 230.425781 C 427.78125 230.273438 427.707031 230.125 427.617188 229.980469 L 384.582031 162.355469 C 383.972656 161.402344 382.921875 160.828125 381.796875 160.828125 L 344.4375 160.828125 L 344.4375 130.359375 C 344.4375 128.535156 342.960938 127.058594 341.136719 127.058594 L 225.722656 127.058594 C 223.898438 127.058594 222.421875 128.535156 222.421875 130.359375 L 222.421875 160.828125 L 185.0625 160.828125 C 183.933594 160.828125 182.882812 161.402344 182.277344 162.355469 L 139.246094 229.980469 C 139.152344 230.125 139.078125 230.273438 139.007812 230.429688 C 138.992188 230.472656 138.976562 230.515625 138.960938 230.558594 C 138.902344 230.703125 138.859375 230.847656 138.824219 231 C 138.8125 231.046875 138.800781 231.089844 138.789062 231.136719 C 138.753906 231.328125 138.734375 231.519531 138.734375 231.714844 C 138.734375 231.726562 138.730469 231.738281 138.730469 231.753906 L 138.730469 261.210938 C 138.730469 272.777344 148.136719 282.1875 159.703125 282.1875 C 161.5 282.1875 163.246094 281.960938 164.914062 281.53125 L 164.914062 420.488281 L 152.175781 420.488281 C 150.351562 420.488281 148.875 421.964844 148.875 423.789062 L 148.875 435.574219 C 148.875 437.398438 150.351562 438.875 152.175781 438.875 L 423.195312 438.875 C 425.015625 438.875 426.496094 437.398438 426.496094 435.574219 L 426.496094 423.789062 C 426.496094 421.964844 425.015625 420.488281 423.195312 420.488281 L 407.183594 420.488281 L 407.183594 282.1875 C 418.734375 282.171875 428.132812 272.769531 428.132812 261.210938 L 428.132812 231.753906 C 428.132812 231.738281 428.128906 231.726562 428.128906 231.710938 Z M 229.023438 133.65625 L 337.839844 133.65625 L 337.839844 160.828125 L 229.023438 160.828125 Z M 186.875 167.425781 L 225.714844 167.425781 C 225.71875 167.425781 225.71875 167.425781 225.722656 167.425781 L 341.140625 167.425781 C 341.140625 167.425781 341.144531 167.425781 341.144531 167.425781 L 379.984375 167.425781 L 418.820312 228.453125 L 148.039062 228.453125 Z M 265.78125 407.070312 L 265.78125 321.992188 C 265.78125 320.171875 264.304688 318.695312 262.480469 318.695312 L 191.78125 318.695312 C 189.957031 318.695312 188.480469 320.171875 188.480469 321.992188 L 188.480469 420.488281 L 171.515625 420.488281 L 171.515625 278.535156 C 173.851562 276.933594 175.847656 274.871094 177.378906 272.484375 C 181.109375 278.3125 187.632812 282.1875 195.054688 282.1875 C 202.472656 282.1875 209 278.3125 212.730469 272.484375 C 216.457031 278.3125 222.984375 282.1875 230.402344 282.1875 C 237.824219 282.1875 244.347656 278.3125 248.078125 272.484375 C 251.808594 278.3125 258.335938 282.1875 265.753906 282.1875 C 273.171875 282.1875 279.699219 278.3125 283.429688 272.484375 C 287.160156 278.3125 293.6875 282.1875 301.105469 282.1875 C 308.523438 282.1875 315.050781 278.3125 318.78125 272.484375 C 322.511719 278.3125 329.035156 282.1875 336.457031 282.1875 C 343.875 282.1875 350.398438 278.3125 354.128906 272.484375 C 357.859375 278.3125 364.386719 282.1875 371.804688 282.1875 C 379.21875 282.1875 385.742188 278.316406 389.472656 272.496094 C 392.03125 276.5 395.917969 279.601562 400.582031 281.132812 L 400.582031 407.070312 Z M 400.582031 413.667969 L 400.582031 420.488281 L 265.78125 420.488281 L 265.78125 413.667969 Z M 259.179688 325.292969 L 259.179688 420.488281 L 195.078125 420.488281 L 195.078125 325.292969 Z M 180.679688 261.207031 L 180.679688 235.050781 L 209.429688 235.050781 L 209.429688 261.210938 C 209.429688 269.136719 202.980469 275.585938 195.054688 275.585938 C 187.125 275.585938 180.679688 269.136719 180.679688 261.210938 C 180.679688 261.210938 180.679688 261.207031 180.679688 261.207031 Z M 216.027344 261.210938 L 216.027344 235.050781 L 244.777344 235.050781 L 244.777344 261.210938 C 244.777344 269.136719 238.328125 275.585938 230.402344 275.585938 C 222.476562 275.585938 216.027344 269.136719 216.027344 261.210938 Z M 251.378906 261.199219 L 251.378906 235.054688 L 280.128906 235.054688 L 280.128906 261.210938 C 280.128906 269.140625 273.679688 275.585938 265.753906 275.585938 C 257.828125 275.585938 251.378906 269.140625 251.378906 261.210938 C 251.378906 261.207031 251.378906 261.203125 251.378906 261.199219 Z M 286.730469 261.207031 L 286.730469 235.050781 L 315.480469 235.050781 L 315.480469 261.210938 C 315.480469 269.136719 309.03125 275.585938 301.105469 275.585938 C 293.179688 275.585938 286.730469 269.136719 286.730469 261.210938 C 286.730469 261.210938 286.730469 261.207031 286.730469 261.207031 Z M 322.082031 261.210938 L 322.082031 235.050781 L 350.832031 235.050781 L 350.832031 261.210938 C 350.832031 269.136719 344.382812 275.585938 336.457031 275.585938 C 328.527344 275.585938 322.082031 269.136719 322.082031 261.210938 Z M 357.429688 261.207031 L 357.429688 235.050781 L 386.179688 235.050781 L 386.179688 261.210938 C 386.179688 269.136719 379.730469 275.585938 371.804688 275.585938 C 363.878906 275.585938 357.433594 269.136719 357.433594 261.210938 C 357.429688 261.210938 357.429688 261.207031 357.429688 261.207031 Z M 159.703125 275.585938 C 151.777344 275.585938 145.328125 269.136719 145.328125 261.210938 L 145.328125 235.050781 L 174.078125 235.050781 L 174.078125 261.210938 C 174.078125 269.136719 167.628906 275.585938 159.703125 275.585938 Z M 419.894531 427.089844 L 419.894531 432.273438 L 155.476562 432.273438 L 155.476562 427.089844 Z M 421.53125 261.210938 C 421.53125 269.136719 415.082031 275.585938 407.15625 275.585938 C 406.253906 275.585938 405.363281 275.503906 404.488281 275.335938 C 397.707031 274.066406 392.78125 268.128906 392.78125 261.210938 L 392.78125 235.050781 L 421.53125 235.050781 Z M 421.53125 261.210938 " fill-opacity="1" fill-rule="nonzero"/></g><path fill="#512036" d="M 380.316406 289.234375 L 286.046875 289.234375 C 284.226562 289.234375 282.75 290.710938 282.75 292.535156 L 282.75 392.695312 C 282.75 394.519531 284.226562 395.996094 286.046875 395.996094 L 380.316406 395.996094 C 382.136719 395.996094 383.613281 394.519531 383.613281 392.695312 L 383.613281 292.535156 C 383.613281 290.710938 382.136719 289.234375 380.316406 289.234375 Z M 377.015625 389.394531 L 289.347656 389.394531 L 289.347656 295.835938 L 377.015625 295.835938 Z M 377.015625 389.394531 " fill-opacity="1" fill-rule="nonzero"/></svg>