<svg xmlns="http://www.w3.org/2000/svg" xmlns:xlink="http://www.w3.org/1999/xlink" width="755" zoomAndPan="magnify" viewBox="0 0 567 567.000005" height="755" preserveAspectRatio="xMidYMid meet" version="1.0"><defs><clipPath id="9d503b9468"><path d="M 100.195312 106.8125 L 431.109375 106.8125 L 431.109375 327 L 100.195312 327 Z M 100.195312 106.8125 " clip-rule="nonzero"/></clipPath><clipPath id="4856062063"><path d="M 173 378 L 255 378 L 255 459.4375 L 173 459.4375 Z M 173 378 " clip-rule="nonzero"/></clipPath><clipPath id="c468bfb99e"><path d="M 332 378 L 414 378 L 414 459.4375 L 332 459.4375 Z M 332 378 " clip-rule="nonzero"/></clipPath></defs><g clip-path="url(#9d503b9468)"><path fill="#512036" d="M 386.882812 326.03125 L 200.902344 326.03125 C 198.390625 326.03125 196.1875 324.339844 195.539062 321.917969 L 153.285156 164.816406 C 153.261719 164.734375 153.238281 164.652344 153.214844 164.570312 L 145.828125 137.113281 L 115.410156 137.113281 C 107.050781 137.105469 100.257812 130.3125 100.257812 121.960938 C 100.257812 113.613281 107.050781 106.8125 115.410156 106.8125 L 144.933594 106.8125 C 147.445312 106.8125 149.644531 108.5 150.296875 110.921875 L 155.425781 129.988281 C 155.445312 130.0625 155.46875 130.140625 155.484375 130.214844 L 162.996094 158.140625 L 426.09375 187.644531 C 427.730469 187.828125 429.203125 188.734375 430.117188 190.109375 C 431.027344 191.488281 431.269531 193.199219 430.789062 194.777344 L 392.195312 322.082031 C 391.492188 324.429688 389.328125 326.03125 386.882812 326.03125 Z M 205.160156 314.917969 L 382.765625 314.917969 L 418.222656 197.949219 L 166.101562 169.675781 Z M 115.410156 117.925781 C 113.1875 117.925781 111.371094 119.734375 111.371094 121.960938 C 111.371094 124.191406 113.179688 126 115.410156 126 L 142.851562 126 L 140.671875 117.925781 Z M 115.410156 117.925781 " fill-opacity="1" fill-rule="nonzero"/></g><path fill="#512036" d="M 422.445312 370.789062 L 169.835938 370.789062 C 167.769531 370.789062 165.871094 369.640625 164.910156 367.808594 C 163.953125 365.980469 164.085938 363.765625 165.265625 362.066406 L 196.328125 317.308594 C 198.078125 314.789062 201.546875 314.160156 204.066406 315.917969 C 206.585938 317.664062 207.214844 321.132812 205.457031 323.652344 L 180.445312 359.683594 L 422.433594 359.683594 C 425.5 359.683594 427.988281 362.171875 427.988281 365.238281 C 427.988281 368.304688 425.515625 370.789062 422.445312 370.789062 Z M 422.445312 370.789062 " fill-opacity="1" fill-rule="nonzero"/><g clip-path="url(#4856062063)"><path fill="#512036" d="M 213.710938 459.082031 C 191.378906 459.082031 173.214844 440.914062 173.214844 418.585938 C 173.214844 396.253906 191.378906 378.085938 213.710938 378.085938 C 236.042969 378.085938 254.210938 396.253906 254.210938 418.585938 C 254.210938 440.914062 236.035156 459.082031 213.710938 459.082031 Z M 213.710938 389.207031 C 197.507812 389.207031 184.328125 402.386719 184.328125 418.589844 C 184.328125 434.796875 197.507812 447.976562 213.710938 447.976562 C 229.914062 447.976562 243.097656 434.796875 243.097656 418.589844 C 243.089844 402.386719 229.90625 389.207031 213.710938 389.207031 Z M 213.710938 389.207031 " fill-opacity="1" fill-rule="nonzero"/></g><g clip-path="url(#c468bfb99e)"><path fill="#512036" d="M 372.664062 459.082031 C 350.335938 459.082031 332.167969 440.914062 332.167969 418.585938 C 332.167969 396.253906 350.335938 378.085938 372.664062 378.085938 C 394.996094 378.085938 413.164062 396.253906 413.164062 418.585938 C 413.164062 440.914062 394.996094 459.082031 372.664062 459.082031 Z M 372.664062 389.207031 C 356.460938 389.207031 343.28125 402.386719 343.28125 418.589844 C 343.28125 434.796875 356.460938 447.976562 372.664062 447.976562 C 388.871094 447.976562 402.050781 434.796875 402.050781 418.589844 C 402.050781 402.386719 388.871094 389.207031 372.664062 389.207031 Z M 372.664062 389.207031 " fill-opacity="1" fill-rule="nonzero"/></g></svg>