<svg xmlns="http://www.w3.org/2000/svg" xmlns:xlink="http://www.w3.org/1999/xlink" width="755" zoomAndPan="magnify" viewBox="0 0 567 567.000005" height="755" preserveAspectRatio="xMidYMid meet" version="1.0"><defs><clipPath id="0ee18c8c0c"><path d="M 140.671875 106.480469 L 425.917969 106.480469 L 425.917969 459.109375 L 140.671875 459.109375 Z M 140.671875 106.480469 " clip-rule="nonzero"/></clipPath></defs><g clip-path="url(#0ee18c8c0c)"><path fill="#512036" d="M 426.191406 451.210938 C 426.199219 451.019531 426.207031 450.832031 426.171875 450.644531 C 426.140625 450.496094 426.082031 450.363281 426.035156 450.222656 C 425.960938 450.023438 425.894531 449.832031 425.777344 449.652344 C 425.703125 449.535156 425.601562 449.4375 425.507812 449.332031 C 425.359375 449.164062 425.214844 449.003906 425.023438 448.875 C 424.984375 448.847656 424.964844 448.804688 424.917969 448.777344 C 420.742188 446.175781 417.023438 443.082031 413.871094 439.574219 C 400.875 425.132812 399.472656 407.046875 399.472656 399.941406 L 399.464844 135.863281 C 399.527344 132.988281 399.125 122.980469 391.085938 114.949219 C 383.085938 106.960938 373.183594 106.523438 370.214844 106.585938 C 370.214844 106.585938 370.210938 106.585938 370.210938 106.585938 L 169.921875 106.585938 C 153.796875 106.582031 140.671875 119.691406 140.671875 135.796875 L 140.671875 192.398438 C 140.671875 193.585938 141.425781 194.648438 142.542969 195.039062 C 143.660156 195.433594 144.914062 195.078125 145.65625 194.148438 L 158.257812 178.421875 L 167.523438 193.84375 C 168.535156 195.527344 171.316406 195.527344 172.324219 193.84375 L 181.589844 178.421875 L 193.578125 193.382812 L 193.578125 399.890625 C 193.425781 407.574219 194.664062 427.199219 209.429688 443.339844 C 215.820312 450.332031 224.042969 455.804688 233.199219 459.175781 C 233.253906 459.195312 233.308594 459.183594 233.359375 459.203125 C 233.40625 459.214844 233.4375 459.25 233.484375 459.261719 C 233.574219 459.285156 233.664062 459.261719 233.757812 459.273438 C 233.894531 459.292969 234.027344 459.34375 234.164062 459.34375 C 234.257812 459.34375 234.347656 459.3125 234.441406 459.304688 C 234.539062 459.292969 234.632812 459.28125 234.730469 459.257812 C 234.980469 459.203125 235.21875 459.117188 235.449219 458.996094 C 235.511719 458.964844 235.582031 458.941406 235.644531 458.902344 C 235.925781 458.726562 236.179688 458.511719 236.382812 458.238281 C 236.410156 458.207031 236.421875 458.167969 236.441406 458.136719 C 236.578125 457.941406 236.707031 457.742188 236.789062 457.507812 C 236.804688 457.457031 236.796875 457.40625 236.8125 457.359375 C 236.828125 457.308594 236.863281 457.277344 236.875 457.226562 L 239.851562 445.359375 L 270.820312 459.105469 C 270.894531 459.136719 270.976562 459.125 271.050781 459.152344 C 271.132812 459.179688 271.191406 459.238281 271.273438 459.257812 C 271.390625 459.285156 271.507812 459.261719 271.628906 459.273438 C 271.734375 459.289062 271.84375 459.34375 271.953125 459.34375 C 272.050781 459.34375 272.144531 459.3125 272.242188 459.304688 C 272.328125 459.292969 272.414062 459.285156 272.496094 459.265625 C 272.78125 459.210938 273.050781 459.117188 273.304688 458.976562 C 273.335938 458.957031 273.375 458.949219 273.40625 458.929688 C 273.683594 458.757812 273.925781 458.539062 274.132812 458.28125 C 274.1875 458.214844 274.21875 458.140625 274.265625 458.070312 C 274.351562 457.941406 274.449219 457.824219 274.515625 457.683594 C 274.550781 457.601562 274.542969 457.523438 274.570312 457.445312 C 274.597656 457.367188 274.652344 457.308594 274.671875 457.226562 L 277.648438 445.363281 L 308.613281 459.105469 C 308.691406 459.140625 308.769531 459.128906 308.84375 459.15625 C 308.925781 459.183594 308.984375 459.242188 309.066406 459.261719 C 309.1875 459.289062 309.304688 459.265625 309.421875 459.277344 C 309.53125 459.292969 309.640625 459.347656 309.746094 459.347656 C 309.847656 459.347656 309.9375 459.316406 310.035156 459.304688 C 310.125 459.296875 310.207031 459.285156 310.292969 459.269531 C 310.574219 459.214844 310.84375 459.117188 311.097656 458.976562 C 311.132812 458.957031 311.167969 458.949219 311.203125 458.929688 C 311.480469 458.761719 311.71875 458.542969 311.925781 458.285156 C 311.980469 458.21875 312.011719 458.144531 312.0625 458.074219 C 312.144531 457.945312 312.242188 457.828125 312.308594 457.683594 C 312.34375 457.605469 312.335938 457.523438 312.363281 457.445312 C 312.390625 457.371094 312.449219 457.3125 312.46875 457.230469 L 315.441406 445.367188 L 346.410156 459.109375 C 346.488281 459.144531 346.566406 459.132812 346.640625 459.15625 C 346.722656 459.183594 346.78125 459.242188 346.863281 459.265625 C 346.980469 459.292969 347.101562 459.265625 347.21875 459.28125 C 347.328125 459.292969 347.4375 459.351562 347.542969 459.351562 C 347.644531 459.351562 347.734375 459.320312 347.832031 459.308594 C 347.921875 459.300781 348.003906 459.289062 348.089844 459.273438 C 348.375 459.214844 348.640625 459.121094 348.890625 458.984375 C 348.929688 458.964844 348.96875 458.957031 349 458.933594 C 349.273438 458.765625 349.515625 458.546875 349.71875 458.289062 C 349.777344 458.222656 349.8125 458.144531 349.859375 458.070312 C 349.945312 457.945312 350.039062 457.832031 350.105469 457.6875 C 350.136719 457.609375 350.128906 457.527344 350.15625 457.449219 C 350.183594 457.371094 350.242188 457.316406 350.261719 457.234375 L 353.234375 445.367188 L 384.203125 459.113281 C 384.277344 459.144531 384.355469 459.136719 384.433594 459.160156 C 384.511719 459.1875 384.570312 459.246094 384.65625 459.265625 C 384.878906 459.324219 385.105469 459.347656 385.324219 459.351562 C 385.328125 459.351562 385.332031 459.351562 385.332031 459.351562 C 385.332031 459.351562 385.335938 459.351562 385.335938 459.351562 C 385.335938 459.351562 385.339844 459.351562 385.339844 459.351562 C 385.351562 459.351562 385.363281 459.347656 385.371094 459.347656 C 385.652344 459.34375 385.925781 459.292969 386.183594 459.210938 C 386.28125 459.179688 386.363281 459.128906 386.457031 459.085938 C 386.625 459.011719 386.792969 458.933594 386.941406 458.824219 C 387.039062 458.757812 387.117188 458.679688 387.199219 458.601562 C 387.328125 458.484375 387.445312 458.363281 387.550781 458.226562 C 387.625 458.125 387.6875 458.019531 387.753906 457.910156 C 387.796875 457.832031 387.855469 457.769531 387.894531 457.683594 C 387.921875 457.621094 387.914062 457.550781 387.941406 457.484375 C 387.972656 457.394531 388.03125 457.324219 388.050781 457.230469 L 391.132812 444.933594 L 422.640625 453.832031 C 422.90625 453.914062 423.179688 453.960938 423.453125 453.960938 C 423.542969 453.960938 423.628906 453.9375 423.71875 453.925781 C 423.773438 453.921875 423.828125 453.917969 423.882812 453.90625 C 424.519531 453.808594 425.113281 453.492188 425.554688 452.984375 C 425.601562 452.929688 425.648438 452.878906 425.691406 452.820312 C 425.738281 452.757812 425.796875 452.710938 425.835938 452.640625 C 425.910156 452.523438 425.925781 452.394531 425.976562 452.265625 C 426.03125 452.148438 426.121094 452.046875 426.160156 451.917969 C 426.175781 451.859375 426.160156 451.804688 426.171875 451.746094 C 426.191406 451.5625 426.191406 451.390625 426.191406 451.210938 Z M 181.070312 170.742188 C 180.160156 170.800781 179.332031 171.304688 178.859375 172.089844 L 169.925781 186.960938 L 160.992188 172.089844 C 160.519531 171.304688 159.691406 170.800781 158.78125 170.742188 C 158.71875 170.738281 158.65625 170.734375 158.59375 170.734375 C 157.746094 170.734375 156.941406 171.117188 156.410156 171.785156 L 146.269531 184.429688 L 146.269531 135.796875 C 146.269531 122.777344 156.882812 112.179688 169.921875 112.179688 C 182.964844 112.179688 193.574219 122.777344 193.574219 135.796875 L 193.574219 184.429688 L 183.445312 171.78125 C 182.871094 171.066406 181.984375 170.691406 181.070312 170.742188 Z M 389.863281 438.757812 C 389.136719 438.546875 388.351562 438.652344 387.703125 439.03125 C 387.046875 439.410156 386.574219 440.039062 386.390625 440.769531 L 383.417969 452.640625 L 352.449219 438.894531 C 351.695312 438.558594 350.835938 438.582031 350.085938 438.941406 C 349.34375 439.300781 348.800781 439.972656 348.601562 440.773438 L 345.628906 452.640625 L 314.660156 438.898438 C 313.90625 438.5625 313.042969 438.585938 312.300781 438.941406 C 311.554688 439.304688 311.011719 439.976562 310.8125 440.777344 L 307.839844 452.644531 L 276.871094 438.902344 C 276.113281 438.566406 275.253906 438.585938 274.507812 438.945312 C 273.761719 439.308594 273.21875 439.980469 273.019531 440.78125 L 270.050781 452.648438 L 239.082031 438.902344 C 238.328125 438.566406 237.464844 438.589844 236.71875 438.949219 C 235.976562 439.308594 235.433594 439.980469 235.234375 440.78125 L 232.230469 452.765625 C 225.082031 449.675781 218.671875 445.160156 213.5625 439.574219 C 200.160156 424.925781 199.039062 407.027344 199.179688 399.957031 L 199.179688 135.796875 C 199.179688 126.089844 194.394531 117.5 187.078125 112.179688 L 370.210938 112.179688 C 370.222656 112.179688 370.234375 112.175781 370.246094 112.171875 C 370.257812 112.171875 370.269531 112.179688 370.28125 112.179688 C 372.5625 112.132812 380.640625 112.429688 387.125 118.90625 C 393.59375 125.367188 393.921875 133.414062 393.863281 135.792969 L 393.875 399.941406 C 393.875 407.691406 395.417969 427.429688 409.707031 443.320312 C 410.148438 443.8125 410.628906 444.273438 411.089844 444.75 Z M 389.863281 438.757812 " fill-opacity="1" fill-rule="nonzero"/></g><path fill="#512036" d="M 264.398438 134.824219 L 328.636719 134.824219 C 330.1875 134.824219 331.4375 133.570312 331.4375 132.023438 C 331.4375 130.476562 330.1875 129.222656 328.636719 129.222656 L 264.398438 129.222656 C 262.851562 129.222656 261.597656 130.476562 261.597656 132.023438 C 261.597656 133.570312 262.851562 134.824219 264.398438 134.824219 Z M 264.398438 134.824219 " fill-opacity="1" fill-rule="nonzero"/><path fill="#512036" d="M 347.535156 276.390625 L 245.503906 276.390625 C 243.953125 276.390625 242.703125 277.644531 242.703125 279.1875 C 242.703125 280.734375 243.953125 281.988281 245.503906 281.988281 L 347.535156 281.988281 C 349.082031 281.988281 350.332031 280.734375 350.332031 279.1875 C 350.332031 277.644531 349.082031 276.390625 347.535156 276.390625 Z M 347.535156 276.390625 " fill-opacity="1" fill-rule="nonzero"/><path fill="#512036" d="M 215.273438 165.011719 L 283.289062 165.011719 C 284.839844 165.011719 286.089844 163.757812 286.089844 162.214844 C 286.089844 160.667969 284.839844 159.414062 283.289062 159.414062 L 215.273438 159.414062 C 213.726562 159.414062 212.472656 160.667969 212.472656 162.214844 C 212.472656 163.757812 213.726562 165.011719 215.273438 165.011719 Z M 215.273438 165.011719 " fill-opacity="1" fill-rule="nonzero"/><path fill="#512036" d="M 215.273438 191.425781 L 283.289062 191.425781 C 284.839844 191.425781 286.089844 190.171875 286.089844 188.625 C 286.089844 187.082031 284.839844 185.824219 283.289062 185.824219 L 215.273438 185.824219 C 213.726562 185.824219 212.472656 187.082031 212.472656 188.625 C 212.472656 190.171875 213.726562 191.425781 215.273438 191.425781 Z M 215.273438 191.425781 " fill-opacity="1" fill-rule="nonzero"/><path fill="#512036" d="M 215.273438 217.839844 L 283.289062 217.839844 C 284.839844 217.839844 286.089844 216.585938 286.089844 215.042969 C 286.089844 213.496094 284.839844 212.242188 283.289062 212.242188 L 215.273438 212.242188 C 213.726562 212.242188 212.472656 213.496094 212.472656 215.042969 C 212.472656 216.585938 213.726562 217.839844 215.273438 217.839844 Z M 215.273438 217.839844 " fill-opacity="1" fill-rule="nonzero"/><path fill="#512036" d="M 286.089844 241.453125 C 286.089844 239.910156 284.839844 238.65625 283.289062 238.65625 L 215.273438 238.65625 C 213.726562 238.65625 212.472656 239.910156 212.472656 241.453125 C 212.472656 243 213.726562 244.253906 215.273438 244.253906 L 283.289062 244.253906 C 284.839844 244.253906 286.089844 243.003906 286.089844 241.453125 Z M 286.089844 241.453125 " fill-opacity="1" fill-rule="nonzero"/><path fill="#512036" d="M 377.769531 159.414062 L 328.640625 159.414062 C 327.09375 159.414062 325.839844 160.667969 325.839844 162.214844 C 325.839844 163.757812 327.09375 165.011719 328.640625 165.011719 L 377.769531 165.011719 C 379.316406 165.011719 380.566406 163.757812 380.566406 162.214844 C 380.566406 160.667969 379.3125 159.414062 377.769531 159.414062 Z M 377.769531 159.414062 " fill-opacity="1" fill-rule="nonzero"/><path fill="#512036" d="M 377.769531 185.824219 L 328.640625 185.824219 C 327.09375 185.824219 325.839844 187.082031 325.839844 188.625 C 325.839844 190.171875 327.09375 191.425781 328.640625 191.425781 L 377.769531 191.425781 C 379.316406 191.425781 380.566406 190.171875 380.566406 188.625 C 380.566406 187.082031 379.3125 185.824219 377.769531 185.824219 Z M 377.769531 185.824219 " fill-opacity="1" fill-rule="nonzero"/><path fill="#512036" d="M 377.769531 212.242188 L 328.640625 212.242188 C 327.09375 212.242188 325.839844 213.496094 325.839844 215.042969 C 325.839844 216.585938 327.09375 217.839844 328.640625 217.839844 L 377.769531 217.839844 C 379.316406 217.839844 380.566406 216.585938 380.566406 215.042969 C 380.566406 213.496094 379.3125 212.242188 377.769531 212.242188 Z M 377.769531 212.242188 " fill-opacity="1" fill-rule="nonzero"/><path fill="#512036" d="M 377.769531 238.65625 L 328.640625 238.65625 C 327.09375 238.65625 325.839844 239.910156 325.839844 241.453125 C 325.839844 243 327.09375 244.253906 328.640625 244.253906 L 377.769531 244.253906 C 379.316406 244.253906 380.566406 243 380.566406 241.453125 C 380.566406 239.910156 379.3125 238.65625 377.769531 238.65625 Z M 377.769531 238.65625 " fill-opacity="1" fill-rule="nonzero"/><path fill="#512036" d="M 299.589844 357.691406 C 298.914062 357.527344 298.234375 357.359375 297.5625 357.191406 L 297.578125 325.046875 C 304.210938 325.234375 310.5625 328.746094 314.289062 334.480469 C 315.132812 335.777344 316.867188 336.148438 318.160156 335.300781 C 319.457031 334.457031 319.828125 332.722656 318.980469 331.425781 C 314.226562 324.113281 306.078125 319.648438 297.582031 319.457031 L 297.582031 313.148438 C 297.582031 311.601562 296.332031 310.347656 294.785156 310.347656 C 293.238281 310.347656 291.984375 311.597656 291.984375 313.144531 L 291.980469 319.964844 C 289.382812 320.5 286.894531 321.433594 284.566406 322.777344 C 276.539062 327.417969 272.140625 336.367188 273.613281 345.046875 C 273.914062 346.828125 274.472656 348.527344 275.265625 350.105469 C 278.554688 356.601562 285.128906 359.53125 291.957031 361.503906 L 291.941406 390.296875 C 285.667969 389.296875 279.15625 385.6875 274.492188 378.976562 C 273.613281 377.707031 271.867188 377.390625 270.597656 378.273438 C 269.324219 379.15625 269.011719 380.902344 269.894531 382.171875 C 275.292969 389.949219 283.574219 394.832031 291.9375 395.964844 L 291.933594 403.230469 C 291.933594 404.78125 293.183594 406.035156 294.730469 406.035156 C 294.734375 406.035156 294.734375 406.035156 294.734375 406.035156 C 296.277344 406.035156 297.535156 404.785156 297.535156 403.238281 L 297.535156 396.125 C 300.75 395.894531 303.886719 395.105469 306.769531 393.628906 C 315.488281 389.167969 322.746094 377.9375 319.214844 368.953125 C 316.394531 361.761719 307.851562 359.695312 299.589844 357.691406 Z M 280.261719 347.578125 C 279.722656 346.507812 279.339844 345.34375 279.136719 344.113281 C 278.046875 337.730469 281.355469 331.105469 287.367188 327.628906 C 288.828125 326.78125 290.375 326.164062 291.976562 325.730469 L 291.960938 355.644531 C 286.84375 354.019531 282.382812 351.765625 280.261719 347.578125 Z M 304.222656 388.644531 C 302.238281 389.660156 299.957031 390.285156 297.542969 390.507812 L 297.554688 362.960938 C 297.789062 363.019531 298.035156 363.078125 298.269531 363.136719 C 305.457031 364.875 312.246094 366.519531 314.007812 371 C 316.09375 376.3125 311.246094 385.050781 304.222656 388.644531 Z M 304.222656 388.644531 " fill-opacity="1" fill-rule="nonzero"/></svg>