<svg xmlns="http://www.w3.org/2000/svg" xmlns:xlink="http://www.w3.org/1999/xlink" width="755" zoomAndPan="magnify" viewBox="0 0 567 567.000005" height="755" preserveAspectRatio="xMidYMid meet" version="1.0"><defs><clipPath id="4563a179b0"><path d="M 0.5 0 L 566.5 0 L 566.5 566 L 0.5 566 Z M 0.5 0 " clip-rule="nonzero"/></clipPath><clipPath id="fa8a07dda7"><path d="M 106.371094 105.871094 L 460.496094 105.871094 L 460.496094 459.996094 L 106.371094 459.996094 Z M 106.371094 105.871094 " clip-rule="nonzero"/></clipPath><clipPath id="829638626a"><path d="M 283.460938 105.871094 C 185.65625 105.871094 106.371094 185.160156 106.371094 282.964844 C 106.371094 380.769531 185.65625 460.054688 283.460938 460.054688 C 381.269531 460.054688 460.554688 380.769531 460.554688 282.964844 C 460.554688 185.160156 381.269531 105.871094 283.460938 105.871094 Z M 283.460938 105.871094 " clip-rule="nonzero"/></clipPath><clipPath id="732ee66221"><path d="M 185.804688 231.472656 L 381.210938 231.472656 L 381.210938 426.878906 L 185.804688 426.878906 Z M 185.804688 231.472656 " clip-rule="nonzero"/></clipPath></defs><g clip-path="url(#4563a179b0)"><path fill="#ffffff" d="M 0.5 0 L 566.5 0 L 566.5 566 L 0.5 566 Z M 0.5 0 " fill-opacity="1" fill-rule="nonzero"/><path fill="#ffffff" d="M 0.5 0 L 566.5 0 L 566.5 566 L 0.5 566 Z M 0.5 0 " fill-opacity="1" fill-rule="nonzero"/></g><g clip-path="url(#fa8a07dda7)"><g clip-path="url(#829638626a)"><path stroke-linecap="butt" transform="matrix(0.74868, 0, 0, 0.74868, 106.370559, 105.871497)" fill="none" stroke-linejoin="miter" d="M 236.536936 -0.000539281 C 105.900697 -0.000539281 0.000714498 105.90466 0.000714498 236.5409 C 0.000714498 367.177139 105.900697 473.077121 236.536936 473.077121 C 367.178393 473.077121 473.078375 367.177139 473.078375 236.5409 C 473.078375 105.90466 367.178393 -0.000539281 236.536936 -0.000539281 Z M 236.536936 -0.000539281 " stroke="#512036" stroke-width="12" stroke-opacity="1" stroke-miterlimit="4"/></g></g><g clip-path="url(#732ee66221)"><path fill="#512036" d="M 377.953125 426.769531 C 376.253906 426.769531 374.855469 425.371094 374.855469 423.671875 L 374.855469 406.019531 C 374.855469 380.066406 353.742188 358.953125 327.789062 358.953125 L 239.152344 358.953125 C 213.199219 358.953125 192.085938 380.066406 192.085938 406.019531 L 192.085938 423.671875 C 192.085938 425.382812 190.699219 426.769531 188.988281 426.769531 C 187.277344 426.769531 185.890625 425.382812 185.890625 423.671875 L 185.890625 406.019531 C 185.890625 376.648438 209.78125 352.757812 239.152344 352.757812 L 327.789062 352.757812 C 357.15625 352.757812 381.050781 376.648438 381.050781 406.019531 L 381.050781 423.671875 C 381.050781 425.371094 379.652344 426.769531 377.953125 426.769531 Z M 339.949219 287.949219 C 339.949219 256.808594 314.613281 231.472656 283.46875 231.472656 C 252.328125 231.472656 226.992188 256.808594 226.992188 287.949219 C 226.992188 319.09375 252.328125 344.429688 283.46875 344.429688 C 314.613281 344.429688 339.949219 319.09375 339.949219 287.949219 Z M 333.753906 287.949219 C 333.753906 315.675781 311.195312 338.234375 283.46875 338.234375 C 255.742188 338.234375 233.1875 315.675781 233.1875 287.949219 C 233.1875 260.222656 255.742188 237.667969 283.46875 237.667969 C 311.195312 237.667969 333.753906 260.222656 333.753906 287.949219 Z M 333.753906 287.949219 " fill-opacity="1" fill-rule="nonzero"/></g></svg>